<svg width="800" height="300" viewBox="0 0 800 300" xmlns="http://www.w3.org/2000/svg">
  <defs>
    <linearGradient id="solanaGradient" x1="0%" y1="0%" x2="100%" y2="0%">
      <stop offset="0%" style="stop-color:#9945FF;stop-opacity:1" />
      <stop offset="100%" style="stop-color:#14F195;stop-opacity:1" />
    </linearGradient>
    <style>
      .box {
        fill: rgba(255, 255, 255, 0.2);
        stroke: white;
        stroke-width: 2;
      }
      .text-label {
        font-family: 'Arial', sans-serif;
        font-size: 14px;
        fill: white;
        text-anchor: middle;
        dominant-baseline: middle;
        font-weight: bold;
      }
      .arrow {
        stroke: white;
        stroke-width: 2;
        marker-end: url(#arrowhead);
      }
    </style>
    <marker id="arrowhead" markerWidth="10" markerHeight="7" refX="0" refY="3.5" orient="auto">
      <polygon points="0 0, 10 3.5, 0 7" fill="white"/>
    </marker>
  </defs>
  <rect width="800" height="300" fill="url(#solanaGradient)" />
  
  <!-- Step 1 - Wider box -->
  <rect x="25" y="100" width="240" height="100" rx="10" ry="10" class="box"/>
  <text x="145" y="150" class="text-label">SUSPICIOUS ACTIVITY DETECTED</text>
  <circle cx="145" cy="70" r="20" fill="none" stroke="white" stroke-width="2"/>
  <text x="145" y="70" class="text-label">1</text>
  
  <!-- Step 2 -->
  <rect x="300" y="100" width="200" height="100" rx="10" ry="10" class="box"/>
  <text x="400" y="150" class="text-label">AML AUTHORITY REVIEW</text>
  <circle cx="400" cy="70" r="20" fill="none" stroke="white" stroke-width="2"/>
  <text x="400" y="70" class="text-label">2</text>
  
  <!-- Step 3 -->
  <rect x="535" y="100" width="230" height="100" rx="10" ry="10" class="box"/>
  <text x="650" y="150" class="text-label">USER BLACKLISTED</text>
  <circle cx="650" cy="70" r="20" fill="none" stroke="white" stroke-width="2"/>
  <text x="650" y="70" class="text-label">3</text>
  
  <!-- Arrows -->
  <line x1="265" y1="150" x2="300" y2="150" class="arrow"/>
  <line x1="500" y1="150" x2="535" y2="150" class="arrow"/>
</svg> 