<svg width="800" height="800" viewBox="0 0 800 800" xmlns="http://www.w3.org/2000/svg">
  <defs>
    <linearGradient id="solanaGradient" x1="0%" y1="0%" x2="100%" y2="100%">
      <stop offset="0%" style="stop-color:#9945FF;stop-opacity:1" />
      <stop offset="100%" style="stop-color:#14F195;stop-opacity:1" />
    </linearGradient>
    <style>
      .text-label {
        font-family: 'Arial', sans-serif;
        font-size: 18px;
        fill: white;
        text-anchor: middle;
        dominant-baseline: middle;
      }
    </style>
  </defs>
  <rect width="800" height="800" fill="url(#solanaGradient)" />
  <circle cx="400" cy="400" r="100" fill="rgba(255, 255, 255, 0.1)" stroke="white" stroke-width="2"/>
  <text x="400" y="400" class="text-label" font-weight="bold">MiCA EUR</text>
  <rect x="275" y="50" width="250" height="100" fill="rgba(255, 255, 255, 0.1)" stroke="white" stroke-width="2" rx="10" ry="10"/>
  <rect x="650" y="325" width="120" height="150" fill="rgba(255, 255, 255, 0.1)" stroke="white" stroke-width="2" rx="10" ry="10"/>
  <rect x="275" y="650" width="250" height="100" fill="rgba(255, 255, 255, 0.1)" stroke="white" stroke-width="2" rx="10" ry="10"/>
  <rect x="30" y="325" width="120" height="150" fill="rgba(255, 255, 255, 0.1)" stroke="white" stroke-width="2" rx="10" ry="10"/>
  <text x="400" y="100" class="text-label">VIEW TRANSACTIONS</text>
  <text x="710" y="400" class="text-label">FREEZE ACCOUNTS</text>
  <text x="400" y="700" class="text-label">SEIZE FUNDS</text>
  <text x="90" y="400" class="text-label">MODIFY BLACKLIST</text>
  <line x1="400" y1="300" x2="400" y2="150" stroke="white" stroke-width="2"/>
  <line x1="500" y1="400" x2="650" y2="400" stroke="white" stroke-width="2"/>
  <line x1="400" y1="500" x2="400" y2="650" stroke="white" stroke-width="2"/>
  <line x1="300" y1="400" x2="150" y2="400" stroke="white" stroke-width="2"/>
</svg> 