<svg width="800" height="800" viewBox="0 0 800 800" xmlns="http://www.w3.org/2000/svg">
  <defs>
    <linearGradient id="solanaGradient" x1="0%" y1="0%" x2="100%" y2="100%">
      <stop offset="0%" style="stop-color:#9945FF;stop-opacity:1" />
      <stop offset="100%" style="stop-color:#14F195;stop-opacity:1" />
    </linearGradient>
    <style>
      .text-label {
        font-family: 'Arial', sans-serif;
        font-size: 20px;
        fill: white;
        text-anchor: middle;
        dominant-baseline: middle;
      }
    </style>
  </defs>
  <rect width="800" height="800" fill="url(#solanaGradient)" />
  <path d="M400 200 L450 300 L550 300 L500 400 L550 500 L450 500 L400 600 L350 500 L250 500 L300 400 L250 300 Z" fill="rgba(255, 255, 255, 0.1)" stroke="white" stroke-width="2"/>
  <text x="400" y="400" class="text-label">MiCA EUR</text>
  <rect x="300" y="50" width="200" height="100" fill="rgba(255, 255, 255, 0.1)" stroke="white" stroke-width="2" rx="10" ry="10"/>
  <rect x="650" y="350" width="100" height="200" fill="rgba(255, 255, 255, 0.1)" stroke="white" stroke-width="2" rx="10" ry="10"/>
  <rect x="300" y="650" width="200" height="100" fill="rgba(255, 255, 255, 0.1)" stroke="white" stroke-width="2" rx="10" ry="10"/>
  <rect x="50" y="350" width="100" height="200" fill="rgba(255, 255, 255, 0.1)" stroke="white" stroke-width="2" rx="10" ry="10"/>
  <text x="400" y="100" class="text-label">VIEW TRANSACTIONS</text>
  <text x="700" y="450" class="text-label">FREEZE ACCOUNTS</text>
  <text x="400" y="700" class="text-label">SEIZE FUNDS</text>
  <text x="100" y="450" class="text-label">MODIFY BLACKLIST</text>
  <line x1="400" y1="200" x2="400" y2="150" stroke="white" stroke-width="2"/>
  <line x1="550" y1="400" x2="600" y2="400" stroke="white" stroke-width="2"/>
  <line x1="400" y1="600" x2="400" y2="650" stroke="white" stroke-width="2"/>
  <line x1="250" y1="400" x2="200" y2="400" stroke="white" stroke-width="2"/>
</svg> 